/* XPM */
static char * dir_xpm[] = {
"20 15 5 1",
" 	c None",
".	c #000000",
"+	c #FFE89E",
"@	c #FBE49A",
"#	c #15130D",
"                    ",
"         .......    ",
"        .+++++++.   ",
"   .....+++++++++.  ",
"  .++++@....###...  ",
"  .++++++++++++++.  ",
"  .++++++++++++++.  ",
"  .++++++++++++++.  ",
"  .++++++++++++++.  ",
"  .++++++++++++++.  ",
"  .++++++++++++++.  ",
"  .++++++++++++++.  ",
"   ..............   ",
"                    ",
"                    "};
